<?xml version="1.0" encoding="UTF-8" standalone="no"?>
<!-- Created with Inkscape (http://www.inkscape.org/) -->

<svg
   width="490mm"
   height="100mm"
   viewBox="0 0 490 100"
   version="1.1"
   id="svg1"
   inkscape:version="1.3.2 (091e20e, 2023-11-25, custom)"
   sodipodi:docname="logo+Sitrmoo-完整.svg"
   inkscape:export-filename="logo+Sitrmoo.svg"
   inkscape:export-xdpi="304.79999"
   inkscape:export-ydpi="304.79999"
   xml:space="preserve"
   xmlns:inkscape="http://www.inkscape.org/namespaces/inkscape"
   xmlns:sodipodi="http://sodipodi.sourceforge.net/DTD/sodipodi-0.dtd"
   xmlns="http://www.w3.org/2000/svg"
   xmlns:svg="http://www.w3.org/2000/svg"><sodipodi:namedview
     id="namedview1"
     pagecolor="#ffffff"
     bordercolor="#000000"
     borderopacity="0.25"
     inkscape:showpageshadow="2"
     inkscape:pageopacity="0.0"
     inkscape:pagecheckerboard="0"
     inkscape:deskcolor="#d1d1d1"
     inkscape:document-units="mm"
     showguides="true"
     inkscape:zoom="0.76729167"
     inkscape:cx="924.68096"
     inkscape:cy="395.54711"
     inkscape:window-width="1920"
     inkscape:window-height="1009"
     inkscape:window-x="-8"
     inkscape:window-y="-8"
     inkscape:window-maximized="1"
     inkscape:current-layer="layer1"
     inkscape:export-bgcolor="#ffffff00" /><defs
     id="defs1"><rect
       x="408.7077"
       y="108.18733"
       width="578.41333"
       height="313.24829"
       id="rect2" /><linearGradient
       id="swatch6"
       inkscape:swatch="solid"><stop
         style="stop-color:#000000;stop-opacity:1;"
         offset="0"
         id="stop6" /></linearGradient></defs><g
     inkscape:label="图层 1"
     inkscape:groupmode="layer"
     id="layer1"
     transform="translate(-0.50001001)"><path
       d="m 495.80654,187.26991 h -4.33762 q 1.04103,-11.27783 1.04103,-13.8804 0,-6.07268 -3.64361,-9.88979 -3.6436,-3.81711 -9.54277,-3.81711 -9.36927,0 -16.30947,6.9402 -6.9402,6.9402 -6.9402,14.92143 0,4.68464 1.90855,8.50175 2.08206,3.64361 8.50175,9.88979 11.62483,11.27782 15.44194,18.04452 3.99062,6.76669 3.99062,13.18638 0,9.88978 -6.41969,18.73854 -6.41968,8.84875 -17.3505,13.70689 -10.93081,4.85814 -21.86163,4.85814 -12.14535,0 -20.30008,-6.24618 -7.98123,-6.24618 -7.98123,-13.18638 0,-3.81711 2.25556,-6.24618 2.25557,-2.42907 4.68464,-2.42907 5.72566,0 7.28721,8.32824 2.77608,14.40092 17.17699,14.40092 10.75731,0 19.95308,-8.15474 9.19576,-8.15473 9.19576,-17.87101 0,-3.99062 -2.08206,-9.02226 -1.90855,-5.03165 -12.66586,-15.78896 -6.07268,-6.24618 -8.67525,-9.36927 -2.60258,-3.29659 -4.16412,-7.63422 -1.38804,-4.33763 -1.38804,-8.15474 0,-11.45133 10.5838,-21.86163 10.75731,-10.5838 26.71977,-10.5838 6.41969,0 20.6471,2.94958 -3.12309,8.32824 -5.72567,29.66936 z m 35.22136,-30.18987 q 0,-3.81711 2.60257,-6.24618 2.60258,-2.60258 6.07268,-2.60258 2.25556,0 3.99061,2.08206 1.73505,1.90856 1.73505,4.51113 0,3.4701 -2.60257,6.24618 -2.60258,2.77608 -5.89917,2.77608 -2.77608,0 -4.33763,-1.90855 -1.56154,-1.90856 -1.56154,-4.85814 z m -24.98472,47.36687 -3.81711,-2.94959 q 15.44194,-16.82999 27.41379,-16.82999 3.12309,0 4.33762,1.04103 1.21454,0.86753 1.21454,2.94959 0,3.12309 -5.55216,20.8206 -9.02226,30.71039 -9.02226,36.26255 0,2.77608 1.73505,2.77608 3.4701,0 14.22741,-10.4103 l 3.12309,3.29659 q -11.10432,10.58381 -16.65648,13.8804 -5.55216,3.12309 -9.36927,3.12309 -3.12309,0 -4.68464,-2.25556 -1.38804,-2.25557 -1.38804,-4.85814 0,-9.54278 12.83937,-51.70449 0.69402,-2.08206 0.69402,-3.2966 0,-1.90855 -2.08206,-1.90855 -2.94958,0 -13.01287,10.06329 z m 62.63527,-32.79245 13.35989,-5.20515 -6.07268,23.77018 h 17.52401 l -1.38804,6.07268 h -17.52401 l -7.28721,28.28132 q -3.6436,13.8804 -3.6436,18.21802 0,3.99062 3.4701,3.99062 3.12309,0 9.19576,-3.64361 6.07268,-3.6436 12.66587,-9.02226 l 3.12309,3.99062 q -17.52401,13.35988 -24.1172,16.82998 -6.59319,3.4701 -10.75731,3.4701 -6.7667,0 -6.7667,-9.71628 0,-5.89917 3.2966,-18.73854 l 8.67525,-33.65997 h -13.7069 l 1.56155,-6.07268 h 13.53339 z m 47.36681,84.32343 H 603.3794 l 6.07267,-22.72915 q 8.15474,-33.13946 8.15474,-36.60956 0,-1.90855 -1.73505,-1.90855 -3.4701,0 -13.35989,10.23679 l -2.77608,-2.94958 q 7.11371,-7.63422 15.44195,-12.49237 8.50174,-5.03164 12.83937,-5.03164 3.6436,0 3.6436,2.77608 0,1.56154 -1.04103,5.72567 l -3.6436,15.09493 q 5.89917,-9.36927 14.57442,-18.39153 8.67525,-9.19577 13.35988,-9.19577 2.42907,0 4.16412,1.56155 1.73505,1.56154 1.73505,3.99061 0,2.42907 -1.73505,3.99062 -1.56154,1.38804 -7.98123,3.64361 -6.76669,2.25556 -10.5838,5.20515 -3.81711,2.94958 -8.67525,9.36927 -4.68464,6.24618 -6.59319,11.45133 -1.90856,5.03164 -5.37866,19.77957 z m 38.69148,-51.53098 -2.42907,-3.4701 q 7.80772,-7.80773 15.26844,-11.97185 7.63422,-4.33763 12.49236,-4.33763 3.4701,0 3.4701,2.77608 0,2.08206 -1.38804,6.5932 -1.21454,3.81711 -2.60258,11.27782 20.30009,-20.6471 31.0574,-20.6471 5.55216,0 5.55216,6.41969 0,4.33763 -2.42907,11.97185 9.71628,-10.06329 16.82998,-14.22742 7.11371,-4.16412 11.27783,-4.16412 2.94958,0 5.03164,2.08206 2.25557,1.90856 2.25557,5.37866 0,4.68464 -3.99062,17.87102 -9.71628,31.75141 -9.71628,36.08904 0,2.94958 2.60258,2.94958 2.94958,0 13.01287,-9.88978 l 2.77608,3.12309 q -12.83937,11.79834 -16.82998,14.0539 -3.99062,2.25557 -7.11371,2.25557 -3.29659,0 -5.20515,-2.94959 -1.73505,-2.94958 -1.73505,-6.41968 0,-6.07268 8.32824,-33.83348 4.33763,-14.92143 4.33763,-17.3505 0,-2.94958 -2.42907,-2.94958 -1.90856,0 -6.41969,2.60257 -4.33762,2.60258 -8.15473,6.41969 -3.81711,3.6436 -6.07268,8.32824 -2.08206,4.68463 -6.07267,19.77957 -3.81711,14.92143 -5.72567,23.77018 h -11.97184 l 12.66586,-51.53098 q 1.21454,-4.68464 1.21454,-6.7667 0,-2.60257 -2.60258,-2.60257 -2.60257,0 -10.4103,6.24618 -7.80772,6.07267 -10.75731,12.66586 -2.77608,6.41969 -4.33762,13.53339 l -6.41969,28.45482 h -12.14535 l 9.54278,-40.25316 q 4.16412,-17.3505 4.16412,-19.43256 0,-1.56154 -1.56155,-1.56154 -3.29659,0 -13.35988,9.71628 z m 105.3177,31.92492 q 0,-19.77957 12.14535,-35.74203 12.14535,-15.96247 29.84287,-15.96247 8.67525,0 13.8804,6.7667 5.37865,6.7667 5.37865,18.21803 0,19.08555 -13.35988,34.00698 -13.18639,14.74792 -27.76081,14.74792 -9.02226,0 -14.57442,-5.89917 -5.55216,-5.89917 -5.55216,-16.13596 z m 46.84636,-22.55565 q 0,-10.93082 -3.2966,-16.82999 -3.12309,-5.89917 -8.67525,-5.89917 -7.80773,0 -14.22741,10.75731 -6.41969,10.58381 -6.41969,27.93431 0,10.4103 3.2966,16.30947 3.4701,5.72566 8.84875,5.72566 8.32824,0 14.40092,-11.10432 6.07268,-11.27782 6.07268,-26.89327 z m 22.55556,22.55565 q 0,-19.77957 12.14535,-35.74203 12.14535,-15.96247 29.84286,-15.96247 8.67525,0 13.8804,6.7667 5.37866,6.7667 5.37866,18.21803 0,19.08555 -13.35989,34.00698 -13.18638,14.74792 -27.7608,14.74792 -9.02226,0 -14.57442,-5.89917 -5.55216,-5.89917 -5.55216,-16.13596 z m 46.84635,-22.55565 q 0,-10.93082 -3.29659,-16.82999 -3.12309,-5.89917 -8.67525,-5.89917 -7.80773,0 -14.22741,10.75731 -6.41969,10.58381 -6.41969,27.93431 0,10.4103 3.2966,16.30947 3.4701,5.72566 8.84875,5.72566 8.32824,0 14.40092,-11.10432 6.07267,-11.27782 6.07267,-26.89327 z"
       id="text1"
       style="font-size:173.505px;font-family:STLiti;-inkscape-font-specification:'STLiti, Normal';white-space:pre;fill:#ff1493;fill-opacity:0.5;stroke-width:1.33832"
       transform="matrix(0.79381659,0,0,0.70692556,-216.55531,-97.288483)"
       aria-label="Sitrmoo" /><path
       id="path6-8"
       style="fill:#ff1493;fill-opacity:0.5;stroke:none;stroke-width:1.01194;stroke-opacity:1"
       d="m 30.499981,64.999928 a 9.9999904,9.9999899 0 0 1 -9.999992,9.999995 9.9999904,9.9999899 0 0 1 -9.999988,-9.999995 9.9999904,9.9999899 0 0 1 9.999988,-9.999988 9.9999904,9.9999899 0 0 1 9.999992,9.999988 z M 90.499906,39.999959 a 9.9999904,9.9999899 0 0 1 -9.999977,9.999988 9.9999904,9.9999899 0 0 1 -9.999988,-9.999988 9.9999904,9.9999899 0 0 1 9.999988,-9.999997 9.9999904,9.9999899 0 0 1 9.999977,9.999997 z M 80.4997,19.999792 A 19.99998,19.999982 0 0 0 60.499906,40.000101 v 9.999896 H 50.50001 v 9.999897 h 9.999896 V 100 h 9.999897 V 59.999894 H 80.4997 A 19.99998,19.999982 0 0 0 100.50001,40.000101 19.99998,19.999982 0 0 0 80.4997,19.999792 Z M 20.499802,0 V 5.0002066 H 30.500216 V 47.685926 A 19.99998,19.999982 0 0 0 20.499802,44.999791 19.99998,19.999982 0 0 0 0.50001001,65.0001 19.99998,19.999982 0 0 0 20.499802,84.999891 19.99998,19.999982 0 0 0 40.500113,65.0001 V 5.0002066 H 50.50001 V 0 Z" /></g></svg>
